<svg width="394" height="300" viewBox="0 0 394 300" fill="none" xmlns="http://www.w3.org/2000/svg">
<path d="M392.189 0L255.024 143.198V143.164L254.991 143.198C254.654 143.553 254.332 143.918 254.024 144.291C247.295 152.457 247.628 164.779 255.024 172.501L377.152 300H378.537L255.746 171.809C248.588 164.335 248.377 152.315 255.121 144.543L393.574 0H392.189Z" fill="#BD1C00"/>
<path d="M74.1663 0L185.387 110.331C190.828 115.694 199.594 115.694 205 110.331L316.221 0H314.801L204.296 109.621C199.282 114.595 191.143 114.599 186.091 109.621L186.089 109.619L75.5863 0H74.1663Z" fill="#BD1C00"/>
<path d="M1.41286 0L300.841 300H299.429L0 0H1.41286Z" fill="#BD1C00"/>
</svg>
