<svg width="528" height="428" viewBox="0 0 528 428" fill="none" xmlns="http://www.w3.org/2000/svg">
<g clip-path="url(#clip0_3004_349)">
<path d="M424.656 13.6989H424.622L424.476 13.8439L266.433 170.623C261.223 175.791 252.77 175.793 247.524 170.623C247.524 170.623 247.523 170.622 247.523 170.622L89.4807 13.8439C76.7063 1.17175 85.7537 -20.5 103.855 -20.5L410.171 -20.5C428.202 -20.5 437.218 1.00592 424.656 13.6989Z" stroke="white"/>
<path d="M317.17 232.802C309.828 225.137 309.616 212.818 316.536 204.853L317.17 204.191L463.468 51.4585C475.635 38.7561 496.5 47.7149 496.5 65.7639L496.5 371.229C496.5 389.311 475.636 398.237 463.468 385.534L317.17 232.802Z" stroke="white"/>
<path d="M-19 -21L505 504" stroke="white"/>
</g>
<defs>
<clipPath id="clip0_3004_349">
<rect width="528" height="428" fill="white"/>
</clipPath>
</defs>
</svg>
